<svg xmlns="http://www.w3.org/2000/svg" xmlns:xlink="http://www.w3.org/1999/xlink" viewBox="0 0 516 512"><defs><style>.cls-1{fill:none;}.cls-2{clip-path:url(#clip-path);}.cls-3{fill:#020202;}.cls-4{clip-path:url(#clip-path-2);}</style><clipPath id="clip-path"><rect class="cls-1" x="20" y="148.28" width="340" height="256.1"/></clipPath><clipPath id="clip-path-2"><rect class="cls-1" x="266.28" y="64" width="237.72" height="416"/></clipPath></defs><title>walkable-to-village</title><g id="Livello_2" data-name="Livello 2"><g id="CANVAS"><rect class="cls-1" x="4" width="512" height="512"/></g><g id="walkable-to-village"><g class="cls-2"><path class="cls-3" d="M292.55,344.94V276.38H244v68.56H218.83V140h-80.9V344.94H116.38V221.17H46.28V344.94H0v34.35H343.43V344.94ZM184.87,157.22h25.59V174H184.87Zm0,26.43h25.59v16.73H184.87ZM146.3,157.22h25.59V174H146.3Zm0,26.43h25.59v16.73H146.3Zm-55.83,51.8h15.59v19.76H90.47Zm-33.87,0H72.27v19.76H56.6Z"/></g><g class="cls-4"><path d="M404.85,157.07c24.24,0,44-20.91,44-46.62s-19.73-46.62-44-46.62-44,20.91-44,46.62,19.72,46.62,44,46.62Zm0-70.88c12.61,0,22.88,10.89,22.88,24.26s-10.27,24.26-22.88,24.26S382,123.83,382,110.45s10.27-24.26,22.88-24.26Zm68.33,382.55c0,6.17-4.72,11.17-10.54,11.17h-28.5a9.42,9.42,0,0,1-1.06-.06h0a7.52,7.52,0,0,1-1-.15l-.27-.06-.69-.19-.35-.13-.57-.22-.39-.18-.49-.25-.4-.23-.44-.28-.39-.28c-.14-.1-.28-.22-.41-.33l-.36-.3a4.89,4.89,0,0,1-.4-.39l-.31-.31c-.14-.14-.26-.3-.39-.45l-.26-.32c-.13-.17-.25-.35-.37-.52l-.21-.31c-.12-.2-.24-.4-.35-.61s-.29-.57-.43-.87c-.05-.11-.1-.22-.14-.33a7.63,7.63,0,0,1-.26-.72l-.09-.25c-.07-.25-.13-.51-.19-.77a2.27,2.27,0,0,1-.06-.25,6.35,6.35,0,0,1-.13-.76c0-.08,0-.16,0-.24l0-.21a.22.22,0,0,1,0-.08L397.4,250.72c-.73-6.13,3.36-11.73,9.13-12.5s11.05,3.55,11.79,9.68l25.12,209.65h19.2c5.82,0,10.54,5,10.54,11.19Zm23.17-127.56a10,10,0,0,1-3.93.81,10.55,10.55,0,0,1-9.78-7l-33.26-87.72c-10.13-26.72-19.67-43.86-36-46.71-5.2-.87-40.51-.74-45.52.17-19.13,3.79-32.62,25.78-44.8,48l-.37.68,21.5,59a11.4,11.4,0,0,1-6,14.46,10.37,10.37,0,0,1-13.64-6.4l-23.33-64a11.79,11.79,0,0,1,.72-9.65l2.92-5.32c14-25.52,31.26-53.2,59.17-58.73,7.53-1.5,46.11-1.42,52.81-.25,28.85,5,42,33.84,52.1,60.43l33.25,87.72a11.42,11.42,0,0,1-5.85,14.54ZM394.88,354l-33.1,103.6h13.78c5.82,0,10.54,5,10.54,11.19s-4.72,11.17-10.54,11.17H347.07a8.94,8.94,0,0,1-1-.06l-.13,0a7.76,7.76,0,0,1-.82-.13l-.29-.06c-.21,0-.41-.1-.62-.17l-.36-.11-.13,0-.3-.13q-.28-.1-.57-.24l-.45-.23-.45-.25c-.18-.1-.34-.22-.51-.33a3.88,3.88,0,0,1-.33-.23c-.19-.13-.36-.27-.54-.42l-.27-.23c-.17-.15-.33-.32-.49-.48l-.25-.26c-.15-.16-.29-.33-.43-.5l-.26-.33c-.12-.15-.23-.32-.34-.49l-.27-.4-.26-.46-.26-.49c-.07-.15-.13-.3-.2-.44l-.22-.55c-.06-.16-.11-.3-.16-.46s-.12-.37-.17-.56-.09-.34-.13-.51-.07-.35-.11-.52-.06-.42-.08-.64l-.06-.43c0-.24,0-.49,0-.74a2.45,2.45,0,0,1,0-.27s0-.07,0-.11c0-.23,0-.47,0-.71s0-.29,0-.43a4.68,4.68,0,0,1,.07-.54c0-.21.06-.41.1-.61l.09-.36c.06-.25.13-.51.21-.76v-.07l37.84-118.38c1.87-5.85,7.85-9,13.37-7s8.46,8.33,6.59,14.18Z"/></g></g></g></svg>